<svg xmlns="http://www.w3.org/2000/svg" viewBox="0 0 48 48" role="img" aria-label="PBE Coach icon">
  <defs>
    <linearGradient id="bg" x1="0" y1="0" x2="1" y2="1">
      <stop offset="0%" stop-color="#3b82f6"/>
      <stop offset="100%" stop-color="#9333ea"/>
    </linearGradient>
  </defs>
  <rect x="0" y="0" width="48" height="48" rx="8" fill="url(#bg)"/>
  <g fill="none" stroke="#ffffff" stroke-width="2.2" stroke-linecap="round" stroke-linejoin="round" transform="translate(9 10)">
    <path d="M15 4v22"/>
    <path d="M1 20a1 1 0 0 1-1-1V2a1 1 0 0 1 1-1h7a7 7 0 0 1 7 7 7 7 0 0 1 7-7h7a1 1 0 0 1 1 1v17a1 1 0 0 1-1 1h-8a5 5 0 0 0-5 5 5 5 0 0 0-5-5z"/>
  </g>
  <g fill="none" stroke="#fde047" stroke-width="1.8" stroke-linecap="round" stroke-linejoin="round" transform="translate(29 1)">
    <path d="m7.2 9.7 1.2 6.8a.4.4 0 0 1-.6.4L5 14.7a.9.9 0 0 0-1 0l-2.8 2.2a.4.4 0 0 1-.6-.4l1.2-6.8"/>
    <circle cx="4.5" cy="5.8" r="4.4"/>
  </g>
</svg>
